<?xml version="1.0" encoding="utf-8"?>
<!-- Generator: Adobe Illustrator 22.1.0, SVG Export Plug-In . SVG Version: 6.00 Build 0)  -->
<svg version="1.1" id="Layer_1" xmlns="http://www.w3.org/2000/svg" xmlns:xlink="http://www.w3.org/1999/xlink" x="0px" y="0px"
	 width="401.2px" height="266.6px" viewBox="0 0 401.2 266.6" style="enable-background:new 0 0 401.2 266.6;" xml:space="preserve"
	>
<style type="text/css">
	.st0{fill:none;stroke:#FFFFFF;stroke-width:1.5;stroke-linecap:round;stroke-linejoin:round;stroke-miterlimit:10;}
</style>
<g>
	<g>
		<g>
			<polygon class="st0" points="67.7,248.3 0.5,266.1 0.5,0.5 67.7,13.7 			"/>
			<polygon class="st0" points="58.3,232.9 18.3,242.3 18.3,21.3 58.3,29.5 			"/>
			<line class="st0" x1="18.3" y1="38.5" x2="58.3" y2="44.5"/>
			<line class="st0" x1="18.3" y1="51.7" x2="58.3" y2="57.7"/>
			<line class="st0" x1="18.3" y1="66.9" x2="58.3" y2="70.9"/>
			<line class="st0" x1="18.3" y1="80.5" x2="58.3" y2="84.5"/>
			<line class="st0" x1="18.3" y1="95.7" x2="58.3" y2="97.7"/>
			<line class="st0" x1="18.3" y1="108.9" x2="58.3" y2="110.9"/>
			<line class="st0" x1="18.3" y1="124.3" x2="58.3" y2="124.3"/>
			<line class="st0" x1="18.3" y1="137.7" x2="58.3" y2="137.7"/>
			<line class="st0" x1="18.3" y1="152.9" x2="58.3" y2="150.9"/>
			<line class="st0" x1="18.3" y1="166.3" x2="58.3" y2="164.3"/>
			<line class="st0" x1="18.3" y1="181.5" x2="58.3" y2="177.5"/>
			<line class="st0" x1="18.3" y1="194.9" x2="58.3" y2="190.9"/>
			<line class="st0" x1="18.3" y1="210.3" x2="58.3" y2="204.3"/>
			<line class="st0" x1="18.3" y1="225.5" x2="58.3" y2="217.5"/>
		</g>
		<line class="st0" x1="9.3" y1="140.1" x2="9.3" y2="255.3"/>
		<line class="st0" x1="9.3" y1="9.5" x2="9.3" y2="124.3"/>
		<g>
			<path class="st0" d="M11.9,31.1c0,0-1.2,0-2.4,0s-2.4,0-2.4,0s1.2,0,2.4,0S11.9,31.1,11.9,31.1z"/>
			<path class="st0" d="M11.9,35.3c0,0-1.2,0-2.4,0s-2.4,0-2.4,0s1.2,0,2.4,0S11.9,35.3,11.9,35.3z"/>
		</g>
		<g>
			<path class="st0" d="M11.9,226.5c0,0-1.2,0-2.4,0s-2.4,0-2.4,0s1.2,0,2.4,0S11.9,226.5,11.9,226.5z"/>
			<path class="st0" d="M11.9,230.9c0,0-1.2,0-2.4,0s-2.4,0-2.4,0s1.2,0,2.4,0S11.9,230.9,11.9,230.9z"/>
		</g>
		<rect x="6.9" y="124.3" class="st0" width="5.2" height="15.4"/>
	</g>
	<g>
		<g>
			<polygon class="st0" points="333.3,18.1 400.7,0.5 400.7,266.1 333.3,252.9 			"/>
			<polygon class="st0" points="342.9,33.7 382.9,24.3 382.9,245.3 342.9,236.9 			"/>
			<line class="st0" x1="382.9" y1="228.1" x2="342.9" y2="222.1"/>
			<line class="st0" x1="382.9" y1="214.7" x2="342.9" y2="208.7"/>
			<line class="st0" x1="382.9" y1="199.5" x2="342.9" y2="195.5"/>
			<line class="st0" x1="382.9" y1="186.1" x2="342.9" y2="182.1"/>
			<line class="st0" x1="382.9" y1="170.7" x2="342.9" y2="168.7"/>
			<line class="st0" x1="382.9" y1="157.5" x2="342.9" y2="155.5"/>
			<line class="st0" x1="382.9" y1="142.3" x2="342.9" y2="142.3"/>
			<line class="st0" x1="382.9" y1="128.7" x2="342.9" y2="128.7"/>
			<line class="st0" x1="382.9" y1="113.5" x2="342.9" y2="115.5"/>
			<line class="st0" x1="382.9" y1="100.3" x2="342.9" y2="102.3"/>
			<line class="st0" x1="382.9" y1="84.9" x2="342.9" y2="88.9"/>
			<line class="st0" x1="382.9" y1="71.5" x2="342.9" y2="75.5"/>
			<line class="st0" x1="382.9" y1="56.1" x2="342.9" y2="62.1"/>
			<line class="st0" x1="382.9" y1="40.9" x2="342.9" y2="48.9"/>
		</g>
		<rect x="389.1" y="126.5" class="st0" width="5.2" height="15.4"/>
	</g>
	<g>
		<rect x="67.7" y="27.3" class="st0" width="5.2" height="15.8"/>
		<rect x="67.7" y="224.1" class="st0" width="5.2" height="15.8"/>
	</g>
	<g>
		<rect x="328.5" y="27.3" class="st0" width="5.2" height="15.8"/>
		<rect x="328.5" y="224.1" class="st0" width="5.2" height="15.8"/>
	</g>
	<g>
		<path class="st0" d="M318.9,266.1H82.3c-8,0-14.4-6.6-14.4-14.4V14.9c0-8,6.6-14.4,14.4-14.4h236.8c8,0,14.4,6.6,14.4,14.4v236.6
			C333.3,259.5,326.9,266.1,318.9,266.1z"/>
	</g>
</g>
</svg>
